<svg width="23" height="22" viewBox="0 0 23 22" fill="none" xmlns="http://www.w3.org/2000/svg">
<g clip-path="url(#clip0_402_9768)">
<path d="M16.3657 10.0836H20.8207C20.6741 8.60779 20.1699 7.23279 19.4091 6.05029C17.8232 6.81113 16.6682 8.29613 16.3657 10.0836Z" fill="#FFFCF9"/>
<path d="M7.0341 10.0836C6.7316 8.29613 5.5766 6.81113 3.99077 6.05029C3.22993 7.23279 2.72577 8.60779 2.5791 10.0836H7.0341Z" fill="#FFFCF9"/>
<path d="M14.5142 10.0836C14.8075 7.70939 16.2375 5.69273 18.2359 4.58356C16.7692 3.08939 14.8075 2.09939 12.6167 1.87939V10.0836H14.5142Z" fill="#FFFCF9"/>
<path d="M8.88573 10.0836H10.7832V1.87939C8.5924 2.09939 6.62156 3.08939 5.16406 4.58356C7.1624 5.69273 8.5924 7.70939 8.88573 10.0836Z" fill="#FFFCF9"/>
<path d="M14.5142 11.917H12.6167V20.1212C14.8075 19.9012 16.7784 18.9112 18.2359 17.417C16.2375 16.3078 14.8075 14.2912 14.5142 11.917Z" fill="#FFFCF9"/>
<path d="M3.99077 15.9503C5.56744 15.1895 6.7316 13.6953 7.0341 11.917H2.5791C2.72577 13.3928 3.22993 14.7678 3.99077 15.9503Z" fill="#FFFCF9"/>
<path d="M16.3657 11.917C16.6682 13.7045 17.8232 15.1895 19.4091 15.9503C20.1699 14.7678 20.6741 13.3928 20.8207 11.917H16.3657Z" fill="#FFFCF9"/>
<path d="M8.88573 11.917C8.5924 14.2912 7.1624 16.3078 5.16406 17.417C6.63073 18.9112 8.5924 19.9012 10.7832 20.1212V11.917H8.88573Z" fill="#FFFCF9"/>
</g>
<defs>
<clipPath id="clip0_402_9768">
<rect width="22" height="22" fill="white" transform="translate(0.699951)"/>
</clipPath>
</defs>
</svg>
