<svg width="10" height="28" viewBox="0 0 10 28" fill="none" xmlns="http://www.w3.org/2000/svg">
<path d="M1.1089 11.804C1.1089 11.804 0.571681 10.0027 0.726667 8.84968C1.00245 6.79803 3.77711 4.51452 3.77711 4.51452V3.67457L3.05225 3.67476V0.731445L7.17467 0.731641V3.67476L6.47437 3.67457V4.51471C6.47437 4.51471 9.20369 6.81342 9.42856 8.84968C9.55686 10.0115 8.94899 11.804 8.94899 11.804V20.9957C8.94899 20.9957 9.28113 21.6605 9.42856 22.1112C9.9393 23.6725 9.75872 25.8584 9.42856 26.3177C9.0984 26.7769 8.99218 27.2138 8.3444 27.2657C7.65966 27.3205 7.47011 26.4191 6.78406 26.4537C6.15781 26.4852 5.74188 27.2394 5.11538 27.2657C4.44006 27.294 4.09861 26.4287 3.42316 26.4537C2.79117 26.477 2.65446 27.2678 2.02204 27.2657C1.34253 27.2633 1.03262 26.7921 0.726664 26.3177C0.42071 25.8433 0.306925 23.6994 0.726691 22.1112C0.844364 21.666 1.1089 20.9957 1.1089 20.9957V11.804Z" fill="#FFFCF9"/>
</svg>
