<svg width="25" height="25" viewBox="0 0 25 25" fill="none" xmlns="http://www.w3.org/2000/svg">
<g clip-path="url(#clip0_392_2547)">
<path d="M16.4001 5.76855C17.5001 5.76855 18.4001 4.86855 18.4001 3.76855C18.4001 2.66855 17.5001 1.76855 16.4001 1.76855C15.3001 1.76855 14.4001 2.66855 14.4001 3.76855C14.4001 4.86855 15.3001 5.76855 16.4001 5.76855ZM5.90015 12.2686C3.10015 12.2686 0.900146 14.4686 0.900146 17.2686C0.900146 20.0686 3.10015 22.2686 5.90015 22.2686C8.70015 22.2686 10.9001 20.0686 10.9001 17.2686C10.9001 14.4686 8.70015 12.2686 5.90015 12.2686ZM5.90015 20.7686C4.00015 20.7686 2.40015 19.1686 2.40015 17.2686C2.40015 15.3686 4.00015 13.7686 5.90015 13.7686C7.80015 13.7686 9.40015 15.3686 9.40015 17.2686C9.40015 19.1686 7.80015 20.7686 5.90015 20.7686ZM11.7001 10.7686L14.1001 8.36856L14.9001 9.16855C16.2001 10.4686 17.9001 11.2686 20.0001 11.2686V9.26855C18.5001 9.26855 17.3001 8.66855 16.4001 7.76855L14.5001 5.86855C14.0001 5.46855 13.5001 5.26855 12.9001 5.26855C12.3001 5.26855 11.8001 5.46855 11.5001 5.86855L8.70015 8.66855C8.30015 9.06855 8.10015 9.56855 8.10015 10.0686C8.10015 10.6686 8.30015 11.1686 8.70015 11.4686L11.9001 14.2686V19.2686H13.9001V13.0686L11.7001 10.7686ZM19.9001 12.2686C17.1001 12.2686 14.9001 14.4686 14.9001 17.2686C14.9001 20.0686 17.1001 22.2686 19.9001 22.2686C22.7001 22.2686 24.9001 20.0686 24.9001 17.2686C24.9001 14.4686 22.7001 12.2686 19.9001 12.2686ZM19.9001 20.7686C18.0001 20.7686 16.4001 19.1686 16.4001 17.2686C16.4001 15.3686 18.0001 13.7686 19.9001 13.7686C21.8001 13.7686 23.4001 15.3686 23.4001 17.2686C23.4001 19.1686 21.8001 20.7686 19.9001 20.7686Z" fill="#FFFCF9"/>
</g>
<defs>
<clipPath id="clip0_392_2547">
<rect width="24" height="24" fill="white" transform="translate(0.900146 0.268555)"/>
</clipPath>
</defs>
</svg>
