<svg width="25" height="25" viewBox="0 0 25 25" fill="none" xmlns="http://www.w3.org/2000/svg">
<g clip-path="url(#clip0_392_2562)">
<path d="M4.69995 16.2686C4.69995 17.1486 5.08995 17.9386 5.69995 18.4886V20.2686C5.69995 20.8186 6.14995 21.2686 6.69995 21.2686H7.69995C8.24995 21.2686 8.69995 20.8186 8.69995 20.2686V19.2686H16.7V20.2686C16.7 20.8186 17.15 21.2686 17.7 21.2686H18.7C19.25 21.2686 19.7 20.8186 19.7 20.2686V18.4886C20.31 17.9386 20.7 17.1486 20.7 16.2686V6.26855C20.7 2.76855 17.12 2.26855 12.7 2.26855C8.27995 2.26855 4.69995 2.76855 4.69995 6.26855V16.2686ZM8.19995 17.2686C7.36995 17.2686 6.69995 16.5986 6.69995 15.7686C6.69995 14.9386 7.36995 14.2686 8.19995 14.2686C9.02995 14.2686 9.69995 14.9386 9.69995 15.7686C9.69995 16.5986 9.02995 17.2686 8.19995 17.2686ZM17.2 17.2686C16.37 17.2686 15.7 16.5986 15.7 15.7686C15.7 14.9386 16.37 14.2686 17.2 14.2686C18.03 14.2686 18.7 14.9386 18.7 15.7686C18.7 16.5986 18.03 17.2686 17.2 17.2686ZM18.7 11.2686H6.69995V6.26855H18.7V11.2686Z" fill="#FFFCF9"/>
</g>
<defs>
<clipPath id="clip0_392_2562">
<rect width="24" height="24" fill="white" transform="translate(0.699951 0.268555)"/>
</clipPath>
</defs>
</svg>
