<svg width="25" height="25" viewBox="0 0 25 25" fill="none" xmlns="http://www.w3.org/2000/svg">
<g clip-path="url(#clip0_392_2552)">
<path d="M19.42 6.27855C19.22 5.68855 18.66 5.26855 18 5.26855H7C6.34 5.26855 5.79 5.68855 5.58 6.27855L3.5 12.2686V20.2686C3.5 20.8186 3.95 21.2686 4.5 21.2686H5.5C6.05 21.2686 6.5 20.8186 6.5 20.2686V19.2686H18.5V20.2686C18.5 20.8186 18.95 21.2686 19.5 21.2686H20.5C21.05 21.2686 21.5 20.8186 21.5 20.2686V12.2686L19.42 6.27855ZM7 16.2686C6.17 16.2686 5.5 15.5986 5.5 14.7686C5.5 13.9386 6.17 13.2686 7 13.2686C7.83 13.2686 8.5 13.9386 8.5 14.7686C8.5 15.5986 7.83 16.2686 7 16.2686ZM18 16.2686C17.17 16.2686 16.5 15.5986 16.5 14.7686C16.5 13.9386 17.17 13.2686 18 13.2686C18.83 13.2686 19.5 13.9386 19.5 14.7686C19.5 15.5986 18.83 16.2686 18 16.2686ZM5.5 11.2686L7 6.76855H18L19.5 11.2686H5.5Z" fill="#FFFCF9"/>
</g>
<defs>
<clipPath id="clip0_392_2552">
<rect width="24" height="24" fill="white" transform="translate(0.5 0.268555)"/>
</clipPath>
</defs>
</svg>
