<svg width="25" height="25" viewBox="0 0 25 25" fill="none" xmlns="http://www.w3.org/2000/svg">
<g clip-path="url(#clip0_392_2542)">
<path d="M13.8 5.76855C14.9 5.76855 15.8 4.86855 15.8 3.76855C15.8 2.66855 14.9 1.76855 13.8 1.76855C12.7 1.76855 11.8 2.66855 11.8 3.76855C11.8 4.86855 12.7 5.76855 13.8 5.76855ZM10.1 9.16855L7.30005 23.2686H9.40005L11.2 15.2686L13.3 17.2686V23.2686H15.3V15.7686L13.2 13.7686L13.8 10.7686C15.1 12.2686 17.1 13.2686 19.3 13.2686V11.2686C17.4 11.2686 15.8 10.2686 15 8.86856L14 7.26855C13.6 6.66855 13 6.26855 12.3 6.26855C12 6.26855 11.8 6.36855 11.5 6.36855L6.30005 8.56855V13.2686H8.30005V9.86856L10.1 9.16855Z" fill="#FFFCF9"/>
</g>
<defs>
<clipPath id="clip0_392_2542">
<rect width="24" height="24" fill="white" transform="translate(0.300049 0.268555)"/>
</clipPath>
</defs>
</svg>
