<svg width="25" height="25" viewBox="0 0 25 25" fill="none" xmlns="http://www.w3.org/2000/svg">
<g clip-path="url(#clip0_392_2557)">
<path d="M12.1001 2.26855C8.1001 2.26855 4.1001 2.76855 4.1001 6.26855V15.7686C4.1001 17.6986 5.6701 19.2686 7.6001 19.2686L6.1001 20.7686V21.2686H8.3301L10.3301 19.2686H14.1001L16.1001 21.2686H18.1001V20.7686L16.6001 19.2686C18.5301 19.2686 20.1001 17.6986 20.1001 15.7686V6.26855C20.1001 2.76855 16.5201 2.26855 12.1001 2.26855ZM7.6001 17.2686C6.7701 17.2686 6.1001 16.5986 6.1001 15.7686C6.1001 14.9386 6.7701 14.2686 7.6001 14.2686C8.4301 14.2686 9.1001 14.9386 9.1001 15.7686C9.1001 16.5986 8.4301 17.2686 7.6001 17.2686ZM11.1001 10.2686H6.1001V6.26855H11.1001V10.2686ZM13.1001 10.2686V6.26855H18.1001V10.2686H13.1001ZM16.6001 17.2686C15.7701 17.2686 15.1001 16.5986 15.1001 15.7686C15.1001 14.9386 15.7701 14.2686 16.6001 14.2686C17.4301 14.2686 18.1001 14.9386 18.1001 15.7686C18.1001 16.5986 17.4301 17.2686 16.6001 17.2686Z" fill="#FFFCF9"/>
</g>
<defs>
<clipPath id="clip0_392_2557">
<rect width="24" height="24" fill="white" transform="translate(0.100098 0.268555)"/>
</clipPath>
</defs>
</svg>
