<?xml version="1.0" standalone="no"?>
<!DOCTYPE svg PUBLIC "-//W3C//DTD SVG 20010904//EN"
 "http://www.w3.org/TR/2001/REC-SVG-20010904/DTD/svg10.dtd">
<svg version="1.0" xmlns="http://www.w3.org/2000/svg"
 width="96.000000pt" height="96.000000pt" viewBox="0 0 96.000000 96.000000"
 preserveAspectRatio="xMidYMid meet" fill="#fafafa">

<g transform="translate(0.000000,96.000000) scale(0.100000,-0.100000)" stroke="none">
<path d="M170 837 l-85 -42 1 -44 c1 -38 7 -49 38 -78 30 -28 44 -34 74 -31
36 3 38 6 79 88 48 97 50 110 25 133 -26 23 -36 21 -132 -26z m54 -95 c-8 -21
-18 -40 -22 -44 -12 -12 -54 15 -63 40 -8 20 -4 25 33 42 57 25 74 13 52 -38z"/>
<path d="M562 854 c-71 -35 -148 -124 -168 -191 -48 -166 103 -317 269 -269
69 20 157 98 193 171 92 188 -106 383 -294 289z m165 -29 c50 -21 72 -42 94
-90 36 -79 18 -149 -59 -228 -52 -54 -80 -71 -131 -81 -111 -21 -226 94 -205
205 10 51 27 79 81 131 77 75 144 94 220 63z"/>
<path d="M629 793 c-1 -4 -1 -11 -1 -15 1 -3 -5 -12 -14 -19 -11 -9 -18 -9
-26 -1 -17 17 -42 -6 -27 -24 17 -20 -8 -49 -27 -33 -20 16 -49 -8 -33 -27 13
-16 2 -37 -16 -30 -8 3 -14 -4 -17 -17 -5 -33 2 -68 13 -61 6 3 16 0 25 -6 11
-10 12 -16 3 -27 -17 -20 4 -41 24 -24 11 9 17 8 27 -3 6 -9 9 -19 6 -24 -7
-12 32 -20 59 -13 11 4 20 13 20 21 0 10 8 14 27 12 30 -3 45 13 29 32 -15 18
14 45 31 28 17 -17 42 6 27 24 -13 16 4 45 24 41 7 -1 12 12 12 33 0 21 -5 35
-12 35 -23 0 -37 23 -24 38 15 19 -9 43 -27 25 -13 -13 -43 6 -39 25 1 7 -13
13 -30 15 -18 2 -34 0 -34 -5z m50 -67 c9 -10 8 -16 -4 -26 -21 -17 -51 6 -34
26 6 8 15 14 19 14 4 0 13 -6 19 -14z m-60 -82 c-14 -14 -17 -14 -29 0 -10 13
-10 19 0 32 12 14 15 14 29 0 14 -15 14 -17 0 -32z m110 0 c-14 -14 -17 -14
-29 0 -10 13 -10 19 0 32 12 14 15 14 29 0 14 -15 14 -17 0 -32z m-167 -56
c-17 -17 -47 9 -30 29 10 12 13 12 27 -1 11 -12 12 -19 3 -28z m117 28 c9 -10
8 -16 -4 -26 -21 -17 -51 6 -34 26 6 8 15 14 19 14 4 0 13 -6 19 -14z m-60
-60 c8 -10 8 -16 -3 -25 -10 -9 -16 -8 -26 3 -12 15 -6 36 9 36 5 0 14 -6 20
-14z"/>
<path d="M326 381 c-38 -38 -74 -67 -80 -65 -6 2 -46 -31 -89 -74 l-77 -78 43
-42 43 -42 79 80 c43 44 76 83 72 87 -4 4 24 39 63 78 l70 71 -28 27 -28 27
-68 -69z"/>
</g>
</svg>
