<svg width="32" height="33" viewBox="0 0 32 33" fill="none" xmlns="http://www.w3.org/2000/svg">
<g clip-path="url(#clip0_392_3865)">
<path d="M22.7867 15.167H29.2667C29.0533 13.0203 28.32 11.0203 27.2133 9.30029C24.9067 10.407 23.2267 12.567 22.7867 15.167Z" fill="black"/>
<path d="M9.21334 15.167C8.77334 12.567 7.09334 10.407 4.78667 9.30029C3.68 11.0203 2.94667 13.0203 2.73334 15.167H9.21334Z" fill="black"/>
<path d="M20.0933 15.1667C20.52 11.7134 22.6 8.78007 25.5066 7.16673C23.3733 4.9934 20.52 3.5534 17.3333 3.2334V15.1667H20.0933Z" fill="black"/>
<path d="M11.9067 15.1667H14.6667V3.2334C11.48 3.5534 8.61335 4.9934 6.49335 7.16673C9.40001 8.78007 11.48 11.7134 11.9067 15.1667Z" fill="black"/>
<path d="M20.0933 17.8335H17.3333V29.7668C20.52 29.4468 23.3866 28.0068 25.5066 25.8335C22.6 24.2202 20.52 21.2868 20.0933 17.8335Z" fill="black"/>
<path d="M4.78667 23.7002C7.08 22.5935 8.77334 20.4202 9.21334 17.8335H2.73334C2.94667 19.9802 3.68 21.9802 4.78667 23.7002Z" fill="black"/>
<path d="M22.7867 17.8335C23.2267 20.4335 24.9067 22.5935 27.2133 23.7002C28.32 21.9802 29.0533 19.9802 29.2667 17.8335H22.7867Z" fill="black"/>
<path d="M11.9067 17.8335C11.48 21.2868 9.40001 24.2202 6.49335 25.8335C8.62668 28.0068 11.48 29.4468 14.6667 29.7668V17.8335H11.9067Z" fill="black"/>
</g>
<defs>
<clipPath id="clip0_392_3865">
<rect width="32" height="32" fill="white" transform="translate(0 0.5)"/>
</clipPath>
</defs>
</svg>
