<svg width="25" height="24" viewBox="0 0 25 24" fill="none" xmlns="http://www.w3.org/2000/svg">
<g clip-path="url(#clip0_426_2531)">
<path d="M17.5898 10.9996H22.4498C22.2898 9.38961 21.7398 7.88961 20.9098 6.59961C19.1798 7.42961 17.9198 9.04961 17.5898 10.9996Z" fill="#FFFCF9"/>
<path d="M7.4098 10.9996C7.0798 9.04961 5.8198 7.42961 4.0898 6.59961C3.2598 7.88961 2.7098 9.38961 2.5498 10.9996H7.4098Z" fill="#FFFCF9"/>
<path d="M15.57 10.9998C15.89 8.4098 17.45 6.2098 19.63 4.9998C18.03 3.3698 15.89 2.2898 13.5 2.0498V10.9998H15.57Z" fill="#FFFCF9"/>
<path d="M9.42963 10.9998H11.4996V2.0498C9.10963 2.2898 6.95963 3.3698 5.36963 4.9998C7.54963 6.2098 9.10963 8.4098 9.42963 10.9998Z" fill="#FFFCF9"/>
<path d="M15.57 13H13.5V21.95C15.89 21.71 18.04 20.63 19.63 19C17.45 17.79 15.89 15.59 15.57 13Z" fill="#FFFCF9"/>
<path d="M4.0898 17.4C5.8098 16.57 7.0798 14.94 7.4098 13H2.5498C2.7098 14.61 3.2598 16.11 4.0898 17.4Z" fill="#FFFCF9"/>
<path d="M17.5898 13C17.9198 14.95 19.1798 16.57 20.9098 17.4C21.7398 16.11 22.2898 14.61 22.4498 13H17.5898Z" fill="#FFFCF9"/>
<path d="M9.42963 13C9.10963 15.59 7.54963 17.79 5.36963 19C6.96963 20.63 9.10963 21.71 11.4996 21.95V13H9.42963Z" fill="#FFFCF9"/>
</g>
<defs>
<clipPath id="clip0_426_2531">
<rect width="24" height="24" fill="white" transform="translate(0.5)"/>
</clipPath>
</defs>
</svg>
