<?xml version="1.0" standalone="no"?>
<!DOCTYPE svg PUBLIC "-//W3C//DTD SVG 20010904//EN"
 "http://www.w3.org/TR/2001/REC-SVG-20010904/DTD/svg10.dtd">
<svg version="1.0" xmlns="http://www.w3.org/2000/svg"
 width="96.000000pt" height="96.000000pt" viewBox="0 0 96.000000 96.000000"
 preserveAspectRatio="xMidYMid meet" fill="#fafafa">

<g transform="translate(0.000000,96.000000) scale(0.100000,-0.100000)" stroke="none">
<path d="M378 867 c-89 -26 -124 -66 -135 -156 -5 -43 8 -180 24 -241 4 -18 3
-22 -5 -15 -15 14 -52 122 -52 152 0 38 -29 41 -62 5 -36 -41 -36 -81 -3 -164
33 -82 91 -157 143 -186 33 -19 42 -29 42 -50 0 -48 20 -101 43 -114 30 -18
284 -18 314 -1 14 9 25 29 32 63 19 89 19 89 -41 74 -29 -8 -89 -14 -133 -13
l-80 1 100 18 c55 9 114 24 131 33 61 32 98 165 98 362 1 155 -9 181 -80 216
-39 18 -67 23 -168 26 -80 2 -137 -2 -168 -10z"/>
</g>
</svg>
