<?xml version="1.0" encoding="UTF-8"?>
<svg id="Ebene_1" data-name="Ebene 1" xmlns="http://www.w3.org/2000/svg" xmlns:xlink="http://www.w3.org/1999/xlink" viewBox="0 0 25.25 24.26">
  <defs>
    <style>
      .cls-1 {
        clip-path: url(#clippath-2);
      }

      .cls-2 {
        clip-path: url(#clippath-1);
      }

      .cls-3 {
        fill: #00001d;
      }

      .cls-4 {
        clip-path: url(#clippath);
      }

      .cls-5 {
        fill: none;
      }
    </style>
    <clipPath id="clippath">
      <rect class="cls-5" x="5.91" y="11.51" width="12.75" height="12.75"/>
    </clipPath>
    <clipPath id="clippath-1">
      <rect class="cls-5" x="12.5" y="1.2" width="12.75" height="12.75"/>
    </clipPath>
    <clipPath id="clippath-2">
      <rect class="cls-5" width="12.75" height="12.75"/>
    </clipPath>
  </defs>
  <g class="cls-4">
    <g>
      <path class="cls-3" d="m9.09,13.64c-1.29.97-2.13,2.51-2.13,4.24,0,.78.17,1.51.47,2.18l1.65-.96v-5.47Z"/>
      <path class="cls-3" d="m11.75,17.58v-4.98c-.56.06-1.1.2-1.59.42v5.48l1.59-.92Z"/>
      <path class="cls-3" d="m12.28,18.5l-4.31,2.49c.32.45.71.84,1.16,1.17l4.74-2.73-1.59-.92Z"/>
      <path class="cls-3" d="m12.81,15.74v1.84l4.31,2.49c.22-.49.37-1.03.44-1.58l-4.74-2.74Z"/>
      <path class="cls-3" d="m10.19,22.78c.64.27,1.34.42,2.09.42,1.77,0,3.34-.88,4.31-2.21l-1.65-.96-4.74,2.74Z"/>
      <path class="cls-3" d="m17.55,17.26c-.29-2.46-2.26-4.41-4.74-4.65v1.91l4.74,2.74Z"/>
    </g>
  </g>
  <g class="cls-2">
    <g>
      <path class="cls-3" d="m22.87,2.52c-1.24-1.24-3.52-.99-5.07.56-.85.85-1.34,2.06-1.35,2.9-.01.84.14,2.07-.72,2.92l-2.25,2.25.75.75,2.25-2.25c.86-.86,2.08-.71,2.92-.72.84-.01,2.05-.5,2.9-1.35,1.55-1.56,1.81-3.83.56-5.07Zm-4.89,4.88c-.81-.81-.56-2.45.56-3.57,1.12-1.12,2.75-1.38,3.57-.56.81.81.56,2.45-.56,3.57-1.12,1.12-2.75,1.38-3.57.56Z"/>
      <path class="cls-3" d="m22.06,10.23c.28,0,.55.11.75.31.41.41.41,1.09,0,1.5-.2.2-.47.31-.75.31s-.55-.11-.75-.31c-.41-.41-.41-1.09,0-1.5.2-.2.47-.31.75-.31Zm0-1.06c-.54,0-1.09.21-1.5.62-.83.83-.83,2.17,0,3.01.41.41.96.62,1.5.62s1.09-.21,1.5-.62c.83-.83.83-2.17,0-3.01-.41-.41-.96-.62-1.5-.62Z"/>
    </g>
  </g>
  <g class="cls-1">
    <g>
      <path class="cls-3" d="m9.08,5.84h2.58c-.08-.86-.38-1.65-.82-2.34-.92.44-1.59,1.3-1.76,2.34Z"/>
      <path class="cls-3" d="m3.67,5.84c-.18-1.04-.84-1.9-1.76-2.34-.44.69-.73,1.48-.82,2.34h2.58Z"/>
      <path class="cls-3" d="m8.01,5.84c.17-1.38,1-2.54,2.16-3.19-.85-.87-1.99-1.44-3.26-1.57v4.75h1.1Z"/>
      <path class="cls-3" d="m4.74,5.84h1.1V1.09c-1.27.13-2.41.7-3.26,1.57,1.16.64,1.99,1.81,2.16,3.19Z"/>
      <path class="cls-3" d="m8.01,6.91h-1.1v4.75c1.27-.13,2.41-.7,3.26-1.57-1.16-.64-1.99-1.81-2.16-3.19Z"/>
      <path class="cls-3" d="m1.91,9.24c.91-.44,1.59-1.31,1.76-2.34H1.09c.09.86.38,1.65.82,2.34Z"/>
      <path class="cls-3" d="m9.08,6.91c.18,1.04.84,1.9,1.76,2.34.44-.69.73-1.48.82-2.34h-2.58Z"/>
      <path class="cls-3" d="m4.74,6.91c-.17,1.38-1,2.54-2.16,3.19.85.87,1.99,1.44,3.26,1.57v-4.75h-1.1Z"/>
    </g>
  </g>
</svg>