<?xml version="1.0" standalone="no"?>
<!DOCTYPE svg PUBLIC "-//W3C//DTD SVG 20010904//EN"
 "http://www.w3.org/TR/2001/REC-SVG-20010904/DTD/svg10.dtd">
<svg version="1.0" xmlns="http://www.w3.org/2000/svg"
 width="96.000000pt" height="96.000000pt" viewBox="0 0 96.000000 96.000000"
 preserveAspectRatio="xMidYMid meet" fill="#fafafa">

<g transform="translate(0.000000,96.000000) scale(0.100000,-0.100000)" stroke="none">
<path d="M320 662 c0 -234 4 -206 -65 -444 l-14 -47 37 -10 c20 -6 37 -9 39
-7 3 3 83 276 83 283 0 2 44 3 98 3 l98 0 55 -180 54 -180 43 0 c23 0 42 1 42
3 0 1 -31 100 -69 220 -87 277 -104 297 -251 297 l-70 0 0 140 0 140 -40 0
-40 0 0 -218z"/>
<path d="M145 575 c-33 -32 -33 -78 0 -110 49 -50 135 -15 135 55 0 41 -39 80
-80 80 -19 0 -40 -9 -55 -25z"/>
<path d="M485 388 c-6 -19 -75 -296 -75 -303 0 -3 19 -5 42 -3 l42 3 38 150
c20 83 38 153 38 158 0 13 -80 8 -85 -5z"/>
</g>
</svg>
