<svg width="25" height="24" viewBox="0 0 25 24" fill="none" xmlns="http://www.w3.org/2000/svg">
<g clip-path="url(#clip0_426_2554)">
<path d="M14.7698 6.00026C14.2198 6.95026 14.5498 8.18026 15.4998 8.73026C16.4498 9.28026 17.6798 8.95026 18.2298 8.00026C18.7798 7.05026 18.4498 5.82026 17.4998 5.27026C16.5498 4.72026 15.3198 5.05026 14.7698 6.00026Z" fill="#FFFCF9"/>
<path d="M16.3398 10.4103C16.3398 10.4103 14.7098 9.47033 13.7398 8.91033C11.3598 7.53033 10.5398 4.47033 11.9198 2.09033L10.1898 1.09033C8.59976 3.83033 9.09977 7.21033 11.1598 9.40033L6.00977 18.3203L7.73977 19.3203L9.23977 16.7203L10.9698 17.7203L7.96977 22.9203L9.69977 23.9203L15.9898 13.0303C17.1298 14.5803 17.3198 16.7203 16.2998 18.4903L18.0298 19.4903C19.6298 16.7403 19.3098 12.9103 16.3398 10.4103Z" fill="#FFFCF9"/>
<path d="M13.2497 3.80014C13.9697 4.21014 14.8797 3.97014 15.2997 3.25014C15.7097 2.53014 15.4697 1.62014 14.7497 1.20014C14.0297 0.790143 13.1197 1.03014 12.6997 1.75014C12.2897 2.47014 12.5297 3.39014 13.2497 3.80014Z" fill="#FFFCF9"/>
</g>
<defs>
<clipPath id="clip0_426_2554">
<rect width="24" height="24" fill="white" transform="translate(0.5)"/>
</clipPath>
</defs>
</svg>
