<?xml version="1.0" encoding="utf-8"?>
<!-- Generator: Adobe Illustrator 27.1.1, SVG Export Plug-In . SVG Version: 6.00 Build 0)  -->
<svg version="1.1" id="Ebene_1" xmlns="http://www.w3.org/2000/svg" xmlns:xlink="http://www.w3.org/1999/xlink" x="0px" y="0px"
	 viewBox="0 0 25 24" style="enable-background:new 0 0 25 24;" xml:space="preserve">
<style type="text/css">
	.st0{clip-path:url(#SVGID_00000096033733906877968450000007348568753203417009_);}
	.st1{fill:#1D1D1D;}
</style>
<g>
	<defs>
		<rect id="SVGID_1_" x="0.5" width="24" height="24"/>
	</defs>
	<clipPath id="SVGID_00000170256884656221634070000009935486421535794588_">
		<use xlink:href="#SVGID_1_"  style="overflow:visible;"/>
	</clipPath>
	<g style="clip-path:url(#SVGID_00000170256884656221634070000009935486421535794588_);">
		<path class="st1" d="M14.8,6c-0.6,1-0.2,2.2,0.7,2.7c1,0.6,2.2,0.2,2.7-0.7c0.6-1,0.2-2.2-0.7-2.7C16.5,4.7,15.3,5.1,14.8,6z"/>
		<path class="st1" d="M16.3,10.4c0,0-1.6-0.9-2.6-1.5c-2.4-1.4-3.2-4.4-1.8-6.8l-1.7-1c-1.6,2.7-1.1,6.1,1,8.3L6,18.3l1.7,1
			l1.5-2.6l1.7,1l-3,5.2l1.7,1L16,13c1.1,1.6,1.3,3.7,0.3,5.5l1.7,1C19.6,16.7,19.3,12.9,16.3,10.4z"/>
		<path class="st1" d="M13.2,3.8C14,4.2,14.9,4,15.3,3.3c0.4-0.7,0.2-1.6-0.6-2c-0.7-0.4-1.6-0.2-2,0.5C12.3,2.5,12.5,3.4,13.2,3.8z
			"/>
	</g>
</g>
</svg>
