<?xml version="1.0" standalone="no"?>
<!DOCTYPE svg PUBLIC "-//W3C//DTD SVG 20010904//EN"
 "http://www.w3.org/TR/2001/REC-SVG-20010904/DTD/svg10.dtd">
<svg version="1.0" xmlns="http://www.w3.org/2000/svg"
 width="96.000000pt" height="96.000000pt" viewBox="0 0 96.000000 96.000000"
 preserveAspectRatio="xMidYMid meet" fill="#1d1d1d">

<g transform="translate(0.000000,96.000000) scale(0.100000,-0.100000)"
stroke="none">
<path d="M789 838 c-81 -309 -122 -437 -147 -468 -26 -33 -81 -41 -306 -47
-202 -6 -211 -7 -233 -29 -19 -19 -23 -34 -23 -86 0 -113 37 -135 216 -124
182 10 324 44 371 88 29 27 63 133 143 438 33 129 63 243 66 253 4 14 -1 17
-35 17 -39 0 -41 -1 -52 -42z"/>
<path d="M207 745 c-116 -41 -113 -135 5 -170 65 -19 111 -19 176 0 89 27 118
91 62 139 -55 45 -164 60 -243 31z"/>
<path d="M120 540 c0 -54 82 -100 180 -100 98 0 180 46 180 101 l0 29 -42 -22
c-61 -32 -202 -33 -270 -1 l-48 22 0 -29z"/>
</g>
</svg>
