<?xml version="1.0" standalone="no"?>
<!DOCTYPE svg PUBLIC "-//W3C//DTD SVG 20010904//EN"
 "http://www.w3.org/TR/2001/REC-SVG-20010904/DTD/svg10.dtd">
<svg version="1.0" xmlns="http://www.w3.org/2000/svg"
 width="96.000000pt" height="96.000000pt" viewBox="0 0 96.000000 96.000000"
 preserveAspectRatio="xMidYMid meet" fill="#1d1d1d">

<g transform="translate(0.000000,96.000000) scale(0.100000,-0.100000)" stroke="none">
<path d="M625 855 c-16 -15 -25 -36 -25 -55 0 -19 9 -40 25 -55 15 -16 36 -25
55 -25 19 0 40 9 55 25 16 15 25 36 25 55 0 19 -9 40 -25 55 -15 16 -36 25
-55 25 -19 0 -40 -9 -55 -25z"/>
<path d="M342 721 c-41 -22 -76 -42 -79 -44 -5 -6 25 -67 33 -67 2 0 35 15 72
33 56 28 112 38 112 21 0 -2 -18 -40 -40 -84 -56 -112 -55 -119 37 -205 l77
-72 -32 -88 c-18 -48 -32 -92 -32 -99 0 -11 60 -40 67 -33 6 7 83 221 83 233
0 7 -18 42 -41 78 l-40 64 26 52 26 51 30 -40 29 -41 85 0 85 0 0 40 0 40 -65
0 -64 0 -50 74 c-49 73 -51 74 -120 95 -116 35 -119 35 -199 -8z"/>
<path d="M365 370 c-3 -6 -50 -10 -106 -10 l-99 0 0 -40 0 -40 113 0 c108 0
115 1 137 25 l23 25 -23 25 c-25 27 -35 30 -45 15z"/>
</g>
</svg>
