<?xml version="1.0" encoding="utf-8"?>
<!-- Generator: Adobe Illustrator 27.1.1, SVG Export Plug-In . SVG Version: 6.00 Build 0)  -->
<svg version="1.1" id="Ebene_1" xmlns="http://www.w3.org/2000/svg" xmlns:xlink="http://www.w3.org/1999/xlink" x="0px" y="0px"
	 viewBox="0 0 40 40" style="enable-background:new 0 0 40 40;" xml:space="preserve">
<style type="text/css">
	.st0{fill:#1D1D1D;}
</style>
<path class="st0" d="M20,37c-2.3,0-4.5-0.4-6.6-1.3C11.3,34.8,9.5,33.5,8,32c-1.5-1.5-2.8-3.3-3.7-5.4C3.4,24.5,3,22.3,3,20
	s0.5-4.6,1.3-6.6C5.2,11.3,6.4,9.5,8,8s3.3-2.8,5.4-3.7C15.5,3.4,17.7,3,20,3s4.6,0.5,6.6,1.3C28.7,5.2,30.5,6.4,32,8
	c1.5,1.5,2.8,3.3,3.7,5.4c0.9,2.1,1.3,4.3,1.3,6.6s-0.4,4.5-1.3,6.6c-0.9,2.1-2.1,3.9-3.7,5.4c-1.5,1.5-3.3,2.8-5.4,3.7
	C24.5,36.5,22.3,37,20,37z M28.7,16l2.9-1l0.8-2.7c-1-1.5-2.2-2.8-3.6-3.9c-1.4-1.1-3-1.9-4.8-2.4l-2.8,1.8v3L28.7,16L28.7,16z
	 M11.3,16l7.4-5.2v-3L16,6c-1.8,0.6-3.4,1.4-4.8,2.4s-2.6,2.3-3.6,3.8L8.6,15L11.3,16L11.3,16z M9,29.6l2.5-0.3l1.7-2.8l-2.6-8.1
	l-3-1l-2,1.7c0,2,0.2,3.9,0.7,5.6C6.7,26.4,7.6,28,9,29.6z M20,34.5c0.8,0,1.5-0.1,2.3-0.2c0.8-0.1,1.6-0.3,2.4-0.6l1.4-3.1
	l-1.4-2.3h-9.6l-1.4,2.3l1.4,3.1c0.7,0.2,1.5,0.4,2.3,0.6C18.5,34.4,19.2,34.5,20,34.5L20,34.5z M15.5,25.7h8.8l2.6-7.8L20,13
	l-7.1,5C12.9,18,15.5,25.7,15.5,25.7z M31,29.6c1.4-1.6,2.3-3.3,2.8-5s0.7-3.6,0.7-5.6l-2-1.4l-3,0.8l-2.6,8.1l1.6,2.8L31,29.6
	L31,29.6z"/>
</svg>
