<?xml version="1.0" encoding="UTF-8"?>
<svg id="Ebene_1" data-name="Ebene 1" xmlns="http://www.w3.org/2000/svg" viewBox="0 0 40 40">
  <defs>
    <style>
      .cls-1 {
        fill: #fff;
      }
    </style>
  </defs>
  <path class="cls-1" d="m20,40c-2.73,0-5.32-.52-7.75-1.58-2.43-1.05-4.56-2.48-6.38-4.3s-3.25-3.94-4.3-6.38c-1.05-2.43-1.57-5.02-1.57-7.75s.53-5.36,1.57-7.77c1.05-2.42,2.48-4.53,4.3-6.35s3.94-3.25,6.38-4.3c2.43-1.05,5.02-1.57,7.75-1.57s5.36.53,7.77,1.57c2.42,1.05,4.53,2.48,6.35,4.3s3.25,3.93,4.3,6.35c1.05,2.42,1.58,5.01,1.58,7.77s-.52,5.32-1.58,7.75c-1.05,2.43-2.48,4.56-4.3,6.38s-3.93,3.25-6.35,4.3c-2.42,1.05-5.01,1.58-7.77,1.58Zm10.25-24.65l3.45-1.2.9-3.2c-1.13-1.77-2.53-3.28-4.2-4.53s-3.55-2.21-5.65-2.88l-3.25,2.15v3.5l8.75,6.15Zm-20.45,0l8.7-6.15v-3.5l-3.2-2.15c-2.1.67-3.98,1.62-5.65,2.87-1.67,1.25-3.07,2.76-4.2,4.52l1.1,3.2,3.25,1.2Zm-2.7,16l3-.35,1.95-3.25-3.1-9.55-3.55-1.2-2.4,1.95c0,2.4.27,4.59.8,6.58.53,1.98,1.63,3.92,3.3,5.82Zm12.9,5.65c.9,0,1.81-.08,2.73-.25.92-.17,1.88-.38,2.88-.65l1.65-3.6-1.6-2.75h-11.25l-1.6,2.75,1.65,3.6c.87.27,1.78.48,2.75.65s1.9.25,2.8.25Zm-5.3-10.25h10.4l3.05-9.15-8.15-5.85-8.3,5.85,3,9.15Zm18.25,4.6c1.63-1.9,2.72-3.84,3.25-5.83s.8-4.18.8-6.58l-2.4-1.65-3.5.9-3.1,9.55,1.9,3.25,3.05.35Z"/>
</svg>