<svg width="25" height="24" viewBox="0 0 25 24" fill="none" xmlns="http://www.w3.org/2000/svg">
<g clip-path="url(#clip0_426_2565)">
<path d="M20.0198 2.4902C17.6798 0.150202 13.3998 0.620202 10.4698 3.5502C8.86984 5.1502 7.94984 7.4202 7.92984 9.0102C7.90984 10.5902 8.18984 12.9002 6.57984 14.5102L2.33984 18.7502L3.75984 20.1702L7.99984 15.9302C9.60984 14.3202 11.9198 14.6002 13.4998 14.5802C15.0798 14.5602 17.3598 13.6402 18.9598 12.0402C21.8798 9.1102 22.3598 4.8302 20.0198 2.4902ZM10.8198 11.6802C9.28984 10.1502 9.76984 7.0702 11.8798 4.9602C13.9898 2.8502 17.0598 2.3702 18.5998 3.9002C20.1298 5.4302 19.6498 8.5102 17.5398 10.6202C15.4298 12.7302 12.3598 13.2102 10.8198 11.6802Z" fill="#FFFCF9"/>
<path d="M18.5 17C19.03 17 19.54 17.21 19.91 17.59C20.69 18.37 20.69 19.64 19.91 20.42C19.54 20.79 19.03 21 18.5 21C17.97 21 17.46 20.79 17.09 20.41C16.31 19.63 16.31 18.36 17.09 17.58C17.46 17.21 17.97 17 18.5 17ZM18.5 15C17.48 15 16.45 15.39 15.67 16.17C14.11 17.73 14.11 20.26 15.67 21.83C16.45 22.61 17.48 23 18.5 23C19.52 23 20.55 22.61 21.33 21.83C22.89 20.27 22.89 17.74 21.33 16.17C20.55 15.39 19.52 15 18.5 15Z" fill="#FFFCF9"/>
</g>
<defs>
<clipPath id="clip0_426_2565">
<rect width="24" height="24" fill="white" transform="translate(0.5)"/>
</clipPath>
</defs>
</svg>
