<?xml version="1.0" encoding="utf-8"?>
<!-- Generator: Adobe Illustrator 27.1.1, SVG Export Plug-In . SVG Version: 6.00 Build 0)  -->
<svg version="1.1" id="Ebene_1" xmlns="http://www.w3.org/2000/svg" xmlns:xlink="http://www.w3.org/1999/xlink" x="0px" y="0px"
	 viewBox="0 0 25 24" style="enable-background:new 0 0 25 24;" xml:space="preserve">
<style type="text/css">
	.st0{clip-path:url(#SVGID_00000066500946939024470410000015842782316737838258_);}
	.st1{fill:#1D1D1D;}
</style>
<g>
	<defs>
		<rect id="SVGID_1_" x="0.5" width="24" height="24"/>
	</defs>
	<clipPath id="SVGID_00000078746983018610174980000002012661903349454266_">
		<use xlink:href="#SVGID_1_"  style="overflow:visible;"/>
	</clipPath>
	<g style="clip-path:url(#SVGID_00000078746983018610174980000002012661903349454266_);">
		<path class="st1" d="M20,2.5c-2.3-2.3-6.6-1.9-9.6,1.1C8.9,5.2,7.9,7.4,7.9,9c0,1.6,0.3,3.9-1.3,5.5l-4.2,4.2l1.4,1.4L8,15.9
			c1.6-1.6,3.9-1.3,5.5-1.3c1.6,0,3.9-0.9,5.5-2.5C21.9,9.1,22.4,4.8,20,2.5z M10.8,11.7c-1.5-1.5-1-4.6,1.1-6.7
			c2.1-2.1,5.2-2.6,6.7-1.1c1.5,1.5,1,4.6-1.1,6.7S12.4,13.2,10.8,11.7z"/>
		<path class="st1" d="M18.5,17c0.5,0,1,0.2,1.4,0.6c0.8,0.8,0.8,2,0,2.8C19.5,20.8,19,21,18.5,21s-1-0.2-1.4-0.6
			c-0.8-0.8-0.8-2,0-2.8C17.5,17.2,18,17,18.5,17z M18.5,15c-1,0-2,0.4-2.8,1.2c-1.6,1.6-1.6,4.1,0,5.7c0.8,0.8,1.8,1.2,2.8,1.2
			s2-0.4,2.8-1.2c1.6-1.6,1.6-4.1,0-5.7C20.5,15.4,19.5,15,18.5,15z"/>
	</g>
</g>
</svg>
