<svg width="25" height="24" viewBox="0 0 25 24" fill="none" xmlns="http://www.w3.org/2000/svg">
<g clip-path="url(#clip0_426_2573)">
<path d="M6.5 4.00977C4.08 5.83977 2.5 8.72977 2.5 11.9998C2.5 13.4598 2.82 14.8498 3.39 16.1098L6.5 14.3098V4.00977Z" fill="#FFFCF9"/>
<path d="M11.5 11.4198V2.0498C10.44 2.1598 9.43 2.4298 8.5 2.8398V13.1598L11.5 11.4198Z" fill="#FFFCF9"/>
<path d="M12.5001 13.1499L4.39014 17.8299C5.00014 18.6699 5.73014 19.4199 6.57014 20.0299L15.5001 14.8899L12.5001 13.1499Z" fill="#FFFCF9"/>
<path d="M13.5 7.95996V11.42L21.61 16.1C22.03 15.17 22.31 14.17 22.43 13.12L13.5 7.95996Z" fill="#FFFCF9"/>
<path d="M8.56982 21.2C9.77982 21.71 11.0998 22 12.4998 22C15.8398 22 18.7898 20.35 20.6098 17.84L17.4998 16.04L8.56982 21.2Z" fill="#FFFCF9"/>
<path d="M22.42 10.8098C21.87 6.1798 18.16 2.5098 13.5 2.0498V5.6498L22.42 10.8098Z" fill="#FFFCF9"/>
</g>
<defs>
<clipPath id="clip0_426_2573">
<rect width="24" height="24" fill="white" transform="translate(0.5)"/>
</clipPath>
</defs>
</svg>
